<svg xmlns="http://www.w3.org/2000/svg" width="419" height="419"><g fill="none"><path fill="#FFF" stroke="#000" stroke-width="8" d="M119 128c-5 37-2 92-2 142 0 27-1 35 8 56 15 34 33 49 61 66 21 13 45 13 66-1 11-8 43-34 55-58 8-17 12-36 12-55 0-10 3-85-1-111s-17-82-43-96-132-39-156 57Z"/><path fill="#000" d="m320 215-4-39c-2-10-8-18-9-25s-2-25-8-34-14-11-15-11h-6c-1 0-12-2-22-1l-19 3-4-1h-2c0 1-1 5-2 4l-1-1c-1-1-2-2-1 0s3 2 0 2l-9-1c1 1 3 3 1 3s-4-3-4-1l1 3c-17-23-24 15-45-6 16 11 18 0 30-5 0 0-12 5-20 2 0 0-13 13-22 6 0 0 9 4 18-6l-4 2 5-4s-14 10-24 7-10-5-11-4l-2 1h-4c-3 6 1 18-4 24-3 4-3 5-3 8l-5 25c-1 10-3 13-4 17l-3 13-2 18s-1-30-3-37c-2-4-3-9-3-14l1-28v-15l-3-3-3-6c0-2 3-2 0-2l-7-2h4c-4-1-6-4-6-8 1 2 2 3 4 3 0 0 2-2 0-2s-2 2 0-1 3-4 2-6-2-1-1-2 4-5 0-4-1 1 0-1 2-11 11-13c0 0-12 0-12 9 0 0-2-5 4-10s4-7 3-7-2 0 0-1l3-4-4 2 3-4s-6 3-10 3c6-2 12-6 16-11 0 0-12-4-8-15 0 10 10 15 19 11h-3l7-3s-11-3-12 1c0 0-1-4 7-4h9l3-1c5 1 4-5 7-3 2 0 1 1 3-1 0 0-2-2 2-2h5l-6-2c12 4 3-4 6-3h3c3 1 2 0 3 3s0 3 1 0 3-18 11-13c0 0-5-2-7 6 0 0-2 3 0 3s3-4 3-1-4 3-1 2 0 3 6 2 19-4 27-2 20 1 25 3 6-1 8 1 7 3 8 3c31 2 32 5 54 27 1 2 6 6 8 11s7 16 6 23v8c1 4 11 15 13 28 3 17-3 74-2 83Z"/><path fill="#000" d="M133 214c6-12 41-9 52-7 10 2 17 3 15-1-3-6-5-9-13-11-11-2-46-11-53 5-3 8-5 18-1 14Zm175 0c-16-20-68 3-63-9 2-6 4-8 12-10l25-4c12-1 21 2 24 10 4 8 5 18 2 13Zm-130 17c2-3 3-7 1-10h-15c-2 4-1 8 2 11 4 1 8 0 12-1Z"/><path fill="#000" d="M174 226c0 3-5 3-5 0s5-4 5 0Z"/><path fill="#FFF" d="M172 225h5l-2-3-4 2 1 1Z" opacity=".3"/><path fill="#000" d="M183 230h6c10 1 5-2 0-5l-7-4c-4-3-16-1-21 0-3 0-6 2-8 3l-3 3 9 3c3 1 1 1-1-1l-3-2c0-1-1-1 1-2l7-3 12-1c3-1 11 4 13 6 1 1-2 2-3 2l-2 1Z"/><path fill="#000" d="M146 222c4-7 18-8 25-8 7-1 16 1 19 8-6-3-12-1-18 0h-26Zm129 10c3-3 4-8 1-12h-13c-3 3-3 8-1 11 3 0 9 2 13 1Z"/><path fill="#000" d="M272 226c0 3-5 3-5 0s5-4 5 0Z"/><path fill="#FFF" d="m270 226 5-1-2-3-4 2 1 2Z" opacity=".3"/><path fill="#000" d="M258 230h-6c-4 0-7 0-4-2l6-4c7-6 17-5 25-4 4 1 8 3 11 6 2 2 4 3 2 3l-9 2c-4 1 0-1 3-2s2-1 0-2c-3-5-16-7-21-6-4 0-8 3-11 5l-1 2 2 1 3 1Z"/><path fill="#000" d="M295 224h-6l-5-1-27-2h-6c2-3 7-5 11-6 8-1 16-1 23 2l8 5 2 2Z"/><path fill="#000" d="M297 349c-5 0-20 3-21-4v-21c-2-21-14-22-32-26-6-1-15 4-22 3-11 0-17-3-28-1-15 3-26 4-30 20l-3 8-2 10-2 6c-3 6-3 8-10 7l-10-2c15 22 29 29 49 43 45 26 77-4 111-43Zm-50 25-6-4-7-4c-2-2-3-3-1-4 3-1 3-3 6-5 1 0 2-1 2-3s0-3-4-2c-7 3-14 5-23 4-9 1-17-7-17-3 0 2-1 1 2 3l2 3c1 1 4 2 4 4s2 1-1 3l-8 7c-3 3-6 5-11 2s-4-5-6-10l-8-21c0-6 1-12 4-15l3-6 2-1 6-4 6-1 4-1h3l8-1 10 2h6c2 1 2-2 4-1l5 1h2c1 1 1 0 2-1h21l1 1c4 2 3-1 7 5l2 11-1 11-5 14c-1 4 0 8-4 12s-5 7-10 4Z" opacity=".6"/><path fill="#FFF" d="M190 278c-2 4-4 20 7 19 9-1 12 11 22 11 13 2 13-12 22-10 5 1 14-5 7-21"/><path fill="#000" d="M190 278c0 4 1 13 5 14l2-1h2l8 1 10 7 3 1c2 0 3 0 5-2l6-5a16 16 0 0 1 12-2v1h1l1-1 2-3 1-11c4 5 8 12 6 18s-7 10-14 9v1c-6 7-12 12-22 11h1c-4 0-7-1-10-3-4-2-6-6-9-8l-2-1c-7 0-13-6-13-13 0-5 2-10 5-13Zm30 45-11-3c-2 0-8 0-11 2l-16 4c-3 0-2 0 0 2 7 5 13 16 22 21 9 4 20 7 34-2 11-7 15-18 20-24 1-1 1-1-1-1h-13c-4 0-12-4-24 1Z"/><path fill="#FFF" d="M198 330c9 5 25 6 34 1a63 63 0 0 1 12-5c-7-2-17 1-24 2 0 0-31-4-22 2Z"/><path fill="#000" d="m252 324-19 1-11 2h-25c-5 1-10 0-15-1l4 2c11 1 18 7 30 7 9 1 18-3 25-7l11-3 5-2-5 1Zm-10 2h-2l-1 2-4 1-2 1-1 1c-1 1-12 4-13 1l-1 1c-2 1-12 0-13-1l-2-2h-2l-4-2c5-2 15 0 22 0 10 0 15-3 22-3 1 0 2 0 1 1Z"/></g></svg>